<svg width="305" height="436" viewBox="0 0 305 436" fill="none" xmlns="http://www.w3.org/2000/svg">
<g clip-path="url(#clip0_1827_2)">
<mask id="mask0_1827_2" style="mask-type:alpha" maskUnits="userSpaceOnUse" x="0" y="0" width="305" height="436">
<path d="M152.5 0C68.2764 0 0 68.3212 0 152.6C0 267.05 152.5 436 152.5 436C152.5 436 305 267.05 305 152.6C305 68.3212 236.724 0 152.5 0Z" fill="#216142"/>
</mask>
<g mask="url(#mask0_1827_2)">
<path d="M155.5 -23C202.472 -23 257 -2.73112 257 49.3496V50.0371C256.77 85.2335 238.533 140.495 211.241 187C210.713 186.133 210.174 185.264 209.627 184.394C214.87 174.981 217.857 164.14 217.857 152.6C217.857 116.48 188.596 87.2002 152.5 87.2002C142.046 87.2002 132.166 89.6559 123.403 94.0225C99.5935 75.8486 75.2054 61.1423 54 52.1602V49.3496C54 -2.73112 108.528 -23 155.5 -23Z" fill="#FA2921"/>
<path d="M95.6641 -20.4375C98.7886 12.1842 110.015 50.3692 128.15 89.4639C128.468 90.1484 128.788 90.8315 129.108 91.5137C104.566 100.93 87.1428 124.728 87.1426 152.6C87.1426 188.238 115.63 217.218 151.062 217.983C120.481 230.731 80.2833 223.709 48.1826 209.215C0.816559 187.828 -44.1585 143.279 -18.4453 92.6162C-18.3385 92.416 -18.2283 92.1917 -18.1074 91.9521C-0.498092 57.8131 45.179 12.3684 95.6641 -20.4375Z" fill="#ED79B5"/>
<path d="M247.515 27.8125C312.944 21.149 343.462 86.4794 347.81 144.992C352.159 203.495 331.753 274.024 266.321 280.697C266.063 280.719 265.772 280.754 265.463 280.785C221.226 285.003 150.11 269.369 89.1631 241.318C100.68 232.813 112.356 222.795 123.992 211.466C132.608 215.651 142.28 218 152.5 218C188.596 218 217.857 188.719 217.857 152.6C217.857 136.984 212.387 122.647 203.26 111.401C221.302 82.2645 235.504 53.2666 243.982 28.1728C245.42 28.0244 246.617 27.9017 247.515 27.8125Z" fill="#FFB400"/>
<path d="M103.592 217.922C62.6107 198.911 26.5228 176.671 -0.366716 154.021C-5.96354 207.143 1.05066 267.008 16.4784 302.536C16.5858 302.781 16.6903 303.015 16.7816 303.222C39.9407 355.702 101.439 363.615 146.648 352.827C191.86 342.05 235.343 309.112 212.188 256.627C211.875 255.907 211.452 254.948 210.939 253.793C180.815 248.638 142.117 235.795 103.592 217.922Z" fill="#1E83F7"/>
<path d="M246.282 223.056C221.254 247.871 183.631 274.4 141.682 296.453C97.0696 319.914 52.943 335.832 14.6936 342.48C57.6718 393.549 115.183 438.165 156.962 453.706C157.252 453.811 157.528 453.913 157.773 454.002C219.744 476.61 268.533 423.694 289.79 370.535C311.038 317.382 311.595 246.874 249.629 224.274C248.778 223.97 247.646 223.556 246.282 223.056Z" fill="#18C249"/>
</g>
</g>
<defs>
<clipPath id="clip0_1827_2">
<rect width="305" height="436" fill="white"/>
</clipPath>
</defs>
</svg>
